HIERARCHY
ROOT Hips
{
	OFFSET 0.000000 100.481300 0.000000
	CHANNELS 6 Xposition Yposition Zposition Xrotation Yrotation Zrotation 
	JOINT Spine
	{
		OFFSET -0.279200 12.230698 -2.892100
		CHANNELS 3 Xrotation Yrotation Zrotation
		JOINT Spine1
		{
			OFFSET -0.232667 10.192268 -1.242267
			CHANNELS 3 Xrotation Yrotation Zrotation
			JOINT Spine1_split
			{
				OFFSET -0.232667 10.192268 -1.242267
				CHANNELS 3 Xrotation Yrotation Zrotation
				JOINT Spine2
				{
					OFFSET -0.232667 10.192268 -1.242267
					CHANNELS 3 Xrotation Yrotation Zrotation
					JOINT Neck
					{
						OFFSET -0.418800 17.814194 8.416900
						CHANNELS 3 Xrotation Yrotation Zrotation
						JOINT Head
						{
							OFFSET 0.000000 7.031097 3.806800
							CHANNELS 3 Xrotation Yrotation Zrotation
							JOINT HeadTop_End
							{
								OFFSET 0.000000 24.646606 12.978600
								CHANNELS 3 Xrotation Yrotation Zrotation
								End Site
								{
									OFFSET 0.000000 0.000000 0.000000
								}
							}
						}
					}
					JOINT LeftShoulder
					{
						OFFSET 8.476499 7.247704 -3.868750
						CHANNELS 3 Xrotation Yrotation Zrotation
						JOINT LeftShoulder_split
						{
							OFFSET 8.476499 7.247704 -3.868750
							CHANNELS 3 Xrotation Yrotation Zrotation
							JOINT LeftArm
							{
								OFFSET 9.308998 -2.777710 0.208600
								CHANNELS 3 Xrotation Yrotation Zrotation
								JOINT LeftForeArm
								{
									OFFSET 29.972298 0.000000 0.000000
									CHANNELS 3 Xrotation Yrotation Zrotation
									JOINT LeftHand
									{
										OFFSET 26.026505 0.000000 0.000000
										CHANNELS 3 Xrotation Yrotation Zrotation
										JOINT LeftHandThumb1
										{
											OFFSET 12.240501 -7.147949 9.207150
											CHANNELS 3 Xrotation Yrotation Zrotation
											JOINT LeftHandThumb2
											{
												OFFSET 4.138618 -2.389435 2.389433
												CHANNELS 3 Xrotation Yrotation Zrotation
												JOINT LeftHandThumb3
												{
													OFFSET 2.726913 -1.574387 1.574386
													CHANNELS 3 Xrotation Yrotation Zrotation
													JOINT LeftHandThumb4
													{
														OFFSET 3.941010 -2.275345 2.275342
														CHANNELS 3 Xrotation Yrotation Zrotation
														End Site
														{
															OFFSET 0.000000 0.000000 0.000000
														}
													}
												}
											}
										}
										JOINT LeftHandIndex1
										{
											OFFSET 24.424698 -1.985611 5.953459
											CHANNELS 3 Xrotation Yrotation Zrotation
											JOINT LeftHandIndex2
											{
												OFFSET 6.426697 0.000000 0.000000
												CHANNELS 3 Xrotation Yrotation Zrotation
												JOINT LeftHandIndex3
												{
													OFFSET 5.337898 0.000000 0.000000
													CHANNELS 3 Xrotation Yrotation Zrotation
													JOINT LeftHandIndex4
													{
														OFFSET 4.409401 0.000000 0.000000
														CHANNELS 3 Xrotation Yrotation Zrotation
														End Site
														{
															OFFSET 0.000000 0.000000 0.000000
														}
													}
												}
											}
										}
										JOINT LeftHandMiddle1
										{
											OFFSET 23.810104 0.000000 0.000000
											CHANNELS 3 Xrotation Yrotation Zrotation
											JOINT LeftHandMiddle2
											{
												OFFSET 7.176498 0.000000 0.000000
												CHANNELS 3 Xrotation Yrotation Zrotation
												JOINT LeftHandMiddle3
												{
													OFFSET 6.774902 0.000000 0.000000
													CHANNELS 3 Xrotation Yrotation Zrotation
													JOINT LeftHandMiddle4
													{
														OFFSET 5.403328 0.000000 0.000000
														CHANNELS 3 Xrotation Yrotation Zrotation
														End Site
														{
															OFFSET 0.000000 0.000000 0.000000
														}
													}
												}
											}
										}
										JOINT LeftHandRing1
										{
											OFFSET 22.908401 -0.839279 -6.020567
											CHANNELS 3 Xrotation Yrotation Zrotation
											JOINT LeftHandRing2
											{
												OFFSET 6.337502 0.000000 0.000000
												CHANNELS 3 Xrotation Yrotation Zrotation
												JOINT LeftHandRing3
												{
													OFFSET 5.779297 0.000000 0.000000
													CHANNELS 3 Xrotation Yrotation Zrotation
													JOINT LeftHandRing4
													{
														OFFSET 4.965698 0.000000 0.000000
														CHANNELS 3 Xrotation Yrotation Zrotation
														End Site
														{
															OFFSET 0.000000 0.000000 0.000000
														}
													}
												}
											}
										}
										JOINT LeftHandPinky1
										{
											OFFSET 20.037003 -1.530319 -10.950146
											CHANNELS 3 Xrotation Yrotation Zrotation
											JOINT LeftHandPinky2
											{
												OFFSET 5.254700 0.000000 0.000000
												CHANNELS 3 Xrotation Yrotation Zrotation
												JOINT LeftHandPinky3
												{
													OFFSET 4.810204 0.000000 0.000000
													CHANNELS 3 Xrotation Yrotation Zrotation
													JOINT LeftHandPinky4
													{
														OFFSET 3.647202 0.000000 0.000000
														CHANNELS 3 Xrotation Yrotation Zrotation
														End Site
														{
															OFFSET 0.000000 0.000000 0.000000
														}
													}
												}
											}
										}
									}
								}
							}
						}
					}
					JOINT RightShoulder
					{
						OFFSET -7.570500 7.247704 -3.868750
						CHANNELS 3 Xrotation Yrotation Zrotation
						JOINT RightShoulder_split
						{
							OFFSET -7.570500 7.247704 -3.868750
							CHANNELS 3 Xrotation Yrotation Zrotation
							JOINT RightArm
							{
								OFFSET -9.308998 -2.777710 0.208500
								CHANNELS 3 Xrotation Yrotation Zrotation
								JOINT RightForeArm
								{
									OFFSET -29.972300 0.000000 0.000000
									CHANNELS 3 Xrotation Yrotation Zrotation
									JOINT RightHand
									{
										OFFSET -26.026505 0.000000 0.000000
										CHANNELS 3 Xrotation Yrotation Zrotation
										JOINT RightHandThumb1
										{
											OFFSET -12.240601 -7.148026 9.207092
											CHANNELS 3 Xrotation Yrotation Zrotation
											JOINT RightHandThumb2
											{
												OFFSET -4.138618 -2.389435 2.389433
												CHANNELS 3 Xrotation Yrotation Zrotation
												JOINT RightHandThumb3
												{
													OFFSET -2.726974 -1.574417 1.574421
													CHANNELS 3 Xrotation Yrotation Zrotation
													JOINT RightHandThumb4
													{
														OFFSET -3.941010 -2.275345 2.275343
														CHANNELS 3 Xrotation Yrotation Zrotation
														End Site
														{
															OFFSET 0.000000 0.000000 0.000000
														}
													}
												}
											}
										}
										JOINT RightHandIndex1
										{
											OFFSET -24.424698 -1.985657 5.953444
											CHANNELS 3 Xrotation Yrotation Zrotation
											JOINT RightHandIndex2
											{
												OFFSET -6.426697 0.000000 0.000000
												CHANNELS 3 Xrotation Yrotation Zrotation
												JOINT RightHandIndex3
												{
													OFFSET -5.337898 0.000000 0.000000
													CHANNELS 3 Xrotation Yrotation Zrotation
													JOINT RightHandIndex4
													{
														OFFSET -4.409401 0.000000 0.000000
														CHANNELS 3 Xrotation Yrotation Zrotation
														End Site
														{
															OFFSET 0.000000 0.000000 0.000000
														}
													}
												}
											}
										}
										JOINT RightHandMiddle1
										{
											OFFSET -23.810097 0.000000 0.000000
											CHANNELS 3 Xrotation Yrotation Zrotation
											JOINT RightHandMiddle2
											{
												OFFSET -7.176498 0.000000 0.000000
												CHANNELS 3 Xrotation Yrotation Zrotation
												JOINT RightHandMiddle3
												{
													OFFSET -6.774902 0.000000 0.000000
													CHANNELS 3 Xrotation Yrotation Zrotation
													JOINT RightHandMiddle4
													{
														OFFSET -5.403328 0.000000 0.000000
														CHANNELS 3 Xrotation Yrotation Zrotation
														End Site
														{
															OFFSET 0.000000 0.000000 0.000000
														}
													}
												}
											}
										}
										JOINT RightHandRing1
										{
											OFFSET -22.908302 -0.839325 -6.020576
											CHANNELS 3 Xrotation Yrotation Zrotation
											JOINT RightHandRing2
											{
												OFFSET -6.337502 0.000000 0.000000
												CHANNELS 3 Xrotation Yrotation Zrotation
												JOINT RightHandRing3
												{
													OFFSET -5.779297 0.000000 0.000000
													CHANNELS 3 Xrotation Yrotation Zrotation
													JOINT RightHandRing4
													{
														OFFSET -4.965698 0.000000 0.000000
														CHANNELS 3 Xrotation Yrotation Zrotation
														End Site
														{
															OFFSET 0.000000 0.000000 0.000000
														}
													}
												}
											}
										}
										JOINT RightHandPinky1
										{
											OFFSET -20.037003 -1.530334 -10.950259
											CHANNELS 3 Xrotation Yrotation Zrotation
											JOINT RightHandPinky2
											{
												OFFSET -5.254700 0.000000 0.000000
												CHANNELS 3 Xrotation Yrotation Zrotation
												JOINT RightHandPinky3
												{
													OFFSET -4.810204 0.000000 0.000000
													CHANNELS 3 Xrotation Yrotation Zrotation
													JOINT RightHandPinky4
													{
														OFFSET -3.647202 0.000000 0.000000
														CHANNELS 3 Xrotation Yrotation Zrotation
														End Site
														{
															OFFSET 0.000000 0.000000 0.000000
														}
													}
												}
											}
										}
									}
								}
							}
						}
					}
				}
			}
		}
	}
	JOINT LeftUpLeg
	{
		OFFSET 15.427100 -6.655098 0.678600
		CHANNELS 3 Xrotation Yrotation Zrotation
		JOINT LeftLeg
		{
			OFFSET 4.081073 -39.591068 13.024000
			CHANNELS 3 Xrotation Yrotation Zrotation
			JOINT LeftFoot
			{
				OFFSET -4.081074 -37.707932 -15.979700
				CHANNELS 3 Xrotation Yrotation Zrotation
				JOINT LeftToeBase
				{
					OFFSET 5.346399 -15.068900 20.645000
					CHANNELS 3 Xrotation Yrotation Zrotation
					JOINT LeftToe_End
					{
						OFFSET 2.754700 0.931300 11.300900
						CHANNELS 3 Xrotation Yrotation Zrotation
						End Site
						{
							OFFSET 0.000000 0.000000 0.000000
						}
					}
				}
			}
		}
	}
	JOINT RightUpLeg
	{
		OFFSET -15.569500 -6.655098 0.678600
		CHANNELS 3 Xrotation Yrotation Zrotation
		JOINT RightLeg
		{
			OFFSET -4.081825 -39.591045 13.023800
			CHANNELS 3 Xrotation Yrotation Zrotation
			JOINT RightFoot
			{
				OFFSET 4.081824 -37.707954 -15.979600
				CHANNELS 3 Xrotation Yrotation Zrotation
				JOINT RightToeBase
				{
					OFFSET -5.346400 -15.068900 20.645000
					CHANNELS 3 Xrotation Yrotation Zrotation
					JOINT RightToe_End
					{
						OFFSET -2.754700 0.931300 11.300900
						CHANNELS 3 Xrotation Yrotation Zrotation
						End Site
						{
							OFFSET 0.000000 0.000000 0.000000
						}
					}
				}
			}
		}
	}
}
MOTION
Frames: 5
Frame Time: 0.016667
2.730011 83.949188 0.236418 5.322084 -6.872459 -1.963463 9.116317 3.572929 5.859221 6.474938 1.246103 1.050140 0.000000 0.000000 0.000000 6.471410 1.202600 1.091236 2.140439 -0.614931 -1.384965 -3.656098 -2.727634 0.126231 0.000001 0.000000 -0.000000 1.724442 -9.915036 -14.934991 0.000000 0.000000 0.000000 -25.063145 2.043299 -69.542186 0.000001 -31.031295 -0.000001 13.812947 3.247841 3.605229 -6.000714 -6.126806 4.616760 7.611095 24.884952 2.404812 -4.383181 25.960692 19.454322 -0.000001 -0.000001 -0.000003 0.627452 4.865867 -25.301801 0.596900 2.578230 -26.065998 0.209948 1.555809 -15.369526 -0.000002 0.000001 -0.000001 0.227915 3.736619 -13.565779 0.647517 2.679129 -27.169716 0.040232 0.686113 -6.710896 0.000001 0.000001 0.000002 0.497547 4.571300 -22.150785 0.640346 2.665140 -27.016047 0.462551 2.283474 -22.899428 0.000002 -0.000001 -0.000001 0.820469 5.237550 -29.403131 0.162685 1.372389 -13.519833 0.462545 2.283465 -22.899399 -0.000002 -0.000002 0.000001 4.830915 17.858061 5.566073 0.000000 0.000000 0.000000 -15.198216 0.576454 66.754977 -0.000004 21.881882 0.000012 11.551347 9.546659 1.170304 -7.540275 -3.885184 -4.751909 7.955464 -28.077799 -3.121254 -4.006989 -18.468389 -17.389974 -0.000003 0.000002 0.000002 0.082433 -1.088633 14.291449 0.320873 -1.700386 21.371542 0.152986 -1.185060 14.710373 0.000001 -0.000003 -0.000003 0.522810 -4.330229 26.060454 0.321168 -1.701133 21.381521 0.457711 -2.015206 25.590263 -0.000002 0.000001 -0.000001 2.075029 -6.645787 34.808912 0.321867 -1.702921 21.404850 0.457734 -2.015236 25.590747 0.000001 -0.000002 -0.000000 1.502783 -7.627456 42.127760 0.321168 -1.701134 21.381409 0.457703 -2.015185 25.590180 0.000000 0.000001 -0.000000 -37.134280 6.734225 22.310314 60.851590 5.179087 -1.897657 4.632707 10.961619 -14.898856 -30.670227 -0.000009 0.000001 0.000000 0.000000 0.000000 -30.529084 -6.048007 4.880929 43.481691 -1.891872 -1.768398 -20.509547 -5.446414 -2.349606 7.159286 0.000007 -0.000002 -0.000000 -0.000000 0.000000 
2.640530 84.078392 0.347494 5.342780 -6.888998 -1.721366 9.109208 3.587241 5.844263 6.470719 1.252375 1.050134 0.000000 0.000000 0.000000 6.467357 1.205347 1.091238 2.140432 -0.627687 -1.373677 -3.654018 -2.810160 -0.098614 0.000002 -0.000000 0.000000 1.719456 -9.903874 -14.934629 0.000000 0.000000 0.000000 -24.909447 1.975395 -69.518492 0.000003 -31.046246 -0.000004 13.575646 3.329224 3.235258 -6.000709 -6.126806 4.616761 7.611096 24.884952 2.404811 -4.383182 25.960694 19.454319 -0.000002 -0.000000 -0.000002 0.631451 4.874259 -25.392813 0.600983 2.586565 -26.156872 0.212419 1.564771 -15.460270 0.000003 0.000000 -0.000001 0.229971 3.745034 -13.650463 0.651210 2.686318 -27.248775 0.041113 0.693607 -6.784522 0.000000 0.000000 0.000002 0.500607 4.578778 -22.229918 0.643788 2.671856 -27.089838 0.465299 2.289956 -22.968333 0.000001 -0.000001 -0.000002 0.824196 5.244105 -29.477116 0.164335 1.379247 -13.588664 0.465122 2.289533 -22.963830 -0.000001 0.000000 0.000001 4.818720 17.839442 5.583535 0.000000 0.000000 0.000000 -15.265585 -0.058702 66.673820 0.000005 21.871309 -0.000018 12.264123 9.590646 0.896158 -7.540278 -3.885182 -4.751911 7.955467 -28.077799 -3.121256 -4.006988 -18.468391 -17.389971 -0.000006 -0.000002 -0.000000 0.081298 -1.093033 14.345788 0.324221 -1.708920 21.484208 0.155313 -1.193921 14.822989 -0.000000 -0.000002 -0.000003 0.524624 -4.333905 26.110821 0.324039 -1.708448 21.477919 0.460861 -2.021772 25.679867 -0.000002 -0.000004 -0.000001 2.078620 -6.647929 34.855825 0.324536 -1.709701 21.494458 0.460665 -2.021344 25.674196 -0.000000 0.000003 -0.000002 1.506862 -7.629878 42.171432 0.323655 -1.707464 21.464848 0.460441 -2.020895 25.668104 -0.000000 -0.000000 -0.000001 -37.641746 7.943262 22.758534 60.370703 5.617811 -2.052577 4.666820 9.496939 -14.471964 -30.422994 -0.000003 -0.000004 -0.000000 0.000001 -0.000000 -30.450213 -5.967638 4.590419 43.343827 -2.171004 -1.747496 -20.443045 -5.075026 -2.197374 7.159280 0.000008 -0.000001 -0.000000 0.000001 -0.000000 
2.479246 84.209877 0.568551 5.369616 -6.885008 -1.398435 9.087171 3.621431 5.819711 6.458227 1.270574 1.050137 0.000000 0.000000 0.000000 6.454843 1.219982 1.086653 2.140425 -0.658715 -1.366249 -3.626630 -2.970674 -0.373948 0.000001 0.000000 -0.000000 1.707822 -9.871298 -14.933500 0.000000 0.000000 0.000000 -24.720374 1.875869 -69.543381 -0.000021 -31.071804 -0.000050 13.451185 3.530292 2.736884 -6.000711 -6.126808 4.616761 7.611095 24.884951 2.404812 -4.383181 25.960695 19.454319 -0.000002 0.000001 0.000002 0.643187 4.898757 -25.658647 0.613020 2.610899 -26.422279 0.219715 1.590918 -15.725298 -0.000000 0.000000 -0.000003 0.236006 3.769621 -13.897912 0.662084 2.707304 -27.479832 0.043761 0.715498 -6.999807 -0.000001 0.000001 0.000001 0.509622 4.600627 -22.461174 0.653871 2.691474 -27.305553 0.473385 2.308933 -23.169796 -0.000000 -0.000002 -0.000001 0.835135 5.263287 -29.693339 0.169206 1.399269 -13.789955 0.472679 2.307280 -23.152285 -0.000001 -0.000001 -0.000001 4.783126 17.784937 5.634549 0.000000 0.000000 0.000000 -15.255323 -0.757014 66.514486 -0.000001 21.916137 0.000001 12.968066 9.611771 0.635158 -7.540274 -3.885183 -4.751909 7.955467 -28.077799 -3.121256 -4.006985 -18.468394 -17.389972 -0.000002 -0.000001 -0.000003 0.084253 -1.104386 14.506164 0.334194 -1.734018 21.816000 0.162304 -1.220009 15.154648 -0.000002 -0.000002 -0.000004 0.529958 -4.344717 26.259332 0.332569 -1.729962 21.762209 0.470229 -2.041129 25.944262 -0.000002 0.000002 0.000001 2.089179 -6.654232 34.994215 0.332475 -1.729698 21.758910 0.469393 -2.039408 25.920563 -0.000000 0.000001 0.000001 1.515886 -7.639726 42.300004 0.331038 -1.726108 21.711167 0.468595 -2.037763 25.898307 0.000001 -0.000000 -0.000000 -38.024285 8.283778 22.120462 59.766901 6.042316 -2.180053 4.417648 7.939624 -13.867715 -29.716879 0.000002 -0.000003 -0.000000 0.000000 -0.000001 -30.221033 -5.853350 4.265988 43.271151 -2.488615 -1.723038 -20.651536 -4.677169 -2.059351 7.159289 0.000006 -0.000000 -0.000000 0.000001 -0.000000 
2.235356 84.357826 0.875742 5.401219 -6.860797 -1.012441 9.050536 3.671173 5.785743 6.437244 1.301644 1.047209 0.000000 0.000000 0.000000 6.434238 1.243750 1.079203 2.140441 -0.705678 -1.362461 -3.574631 -3.199441 -0.688520 0.000000 -0.000000 0.000000 1.689947 -9.818012 -14.926637 0.000000 0.000000 0.000000 -24.496736 1.749456 -69.601472 -0.000002 -31.094805 -0.000012 13.416804 3.707237 2.149841 -6.000711 -6.126805 4.616765 7.611091 24.884947 2.404810 -4.383180 25.960695 19.454325 0.000003 0.000000 0.000000 0.662401 4.938233 -26.088521 0.632718 2.650126 -26.851372 0.231769 1.633111 -16.153877 0.000001 0.000001 -0.000002 0.245993 3.809345 -14.298178 0.679856 2.741152 -27.853674 0.048218 0.750918 -7.348268 0.000000 0.000001 0.000002 0.524380 4.635899 -22.835378 0.670375 2.723149 -27.654702 0.486613 2.339567 -23.495999 0.000001 0.000001 0.000000 0.852980 5.294244 -30.043390 0.177271 1.431653 -14.115809 0.485046 2.335961 -23.457506 -0.000001 -0.000003 -0.000004 4.725663 17.696573 5.717010 0.000000 0.000000 0.000000 -15.174706 -1.505985 66.289909 -0.000011 21.983637 0.000003 13.660428 9.640873 0.382060 -7.540272 -3.885182 -4.751909 7.955469 -28.077794 -3.121255 -4.006989 -18.468394 -17.389972 -0.000005 0.000001 -0.000002 0.089121 -1.122866 14.767909 0.350765 -1.774868 22.357624 0.174030 -1.262501 15.696002 0.000002 0.000001 -0.000000 0.538740 -4.362385 26.501867 0.346739 -1.765037 22.227078 0.485766 -2.072724 26.376871 0.000000 -0.000002 0.000001 2.106472 -6.664474 35.220506 0.345657 -1.762361 22.191527 0.483847 -2.068864 26.323959 0.000001 -0.000002 0.000000 1.527456 -7.652284 42.510349 0.343288 -1.756561 22.114467 0.482102 -2.065328 26.275470 0.000000 -0.000001 -0.000000 -38.421115 8.901389 20.920478 58.843412 6.204236 -2.291423 3.779506 6.311577 -12.998570 -28.605211 0.000006 0.000000 -0.000000 -0.000001 -0.000000 -29.904306 -5.724417 3.936452 43.198197 -2.853903 -1.704273 -20.962571 -4.251211 -1.940927 7.159287 0.000005 -0.000002 -0.000000 0.000002 -0.000000 
1.978843 84.562202 1.259929 5.436162 -6.814855 -0.549721 9.001736 3.725383 5.716786 6.408334 1.343090 1.038724 0.000000 0.000000 0.000000 6.405866 1.274518 1.063853 2.140432 -0.766234 -1.362486 -3.498523 -3.486839 -1.029327 0.000001 0.000001 -0.000000 1.665942 -9.745070 -14.916923 0.000000 0.000000 0.000000 -24.239259 1.601048 -69.677143 0.000004 -31.120879 0.000015 13.466429 3.907400 1.467176 -6.000713 -6.126805 4.616762 7.611092 24.884949 2.404812 -4.383182 25.960692 19.454319 0.000001 -0.000001 -0.000004 0.688961 4.991568 -26.671604 0.659892 2.703087 -27.433496 0.248620 1.690196 -16.735155 0.000001 0.000000 -0.000001 0.260012 3.863136 -14.841344 0.704330 2.786922 -28.361182 0.054625 0.798971 -7.821422 -0.000003 0.000001 0.000003 0.544813 4.683643 -23.343326 0.693070 2.765998 -28.128862 0.504854 2.381073 -23.939108 0.000001 -0.000002 -0.000000 0.877541 5.336112 -30.518720 0.188490 1.475575 -14.558434 0.502089 2.374823 -23.872245 0.000001 -0.000003 -0.000002 4.647963 17.576322 5.828746 0.000000 0.000000 0.000000 -15.030451 -2.293396 66.012972 -0.000005 22.078583 0.000013 14.337143 9.672004 0.139468 -7.540274 -3.885185 -4.751909 7.955464 -28.077794 -3.121255 -4.006983 -18.468394 -17.389972 0.000001 0.000001 -0.000001 0.095881 -1.148091 15.126603 0.374131 -1.830578 23.099754 0.190748 -1.320537 16.437801 0.000001 -0.000001 -0.000006 0.550893 -4.386534 26.834558 0.366674 -1.812999 22.865125 0.507475 -2.115927 26.971095 -0.000002 0.000004 0.000001 2.130292 -6.678433 35.531109 0.364163 -1.807054 22.785827 0.504064 -2.109195 26.878469 0.000000 -0.000001 -0.000001 1.543426 -7.669461 42.799253 0.360481 -1.798274 22.668865 0.500972 -2.103087 26.794265 0.000000 -0.000001 -0.000000 -38.685331 9.583813 19.554261 57.439610 6.356057 -2.374942 2.959332 4.734975 -11.996901 -27.141384 0.000000 0.000004 -0.000000 0.000002 -0.000000 -29.486842 -5.550215 3.532225 43.051980 -3.236384 -1.676228 -21.312449 -3.821601 -1.804364 7.159286 0.000010 -0.000002 -0.000000 -0.000000 -0.000000 
